<svg width="23" height="21" viewBox="0 0 23 21" fill="none" xmlns="http://www.w3.org/2000/svg">
<path d="M22 7.18776C22.0036 8.81202 21.3811 10.3745 20.2633 11.5473C17.7002 14.2189 15.2138 17.0046 12.5562 19.5781C11.9461 20.1586 10.9791 20.1375 10.3963 19.5306L2.73646 11.5483C0.421181 9.13529 0.421181 5.24023 2.73646 2.82825C3.28366 2.25085 3.94181 1.79117 4.67099 1.47709C5.40017 1.16301 6.18521 1.00106 6.97851 1.00106C7.77181 1.00106 8.55684 1.16301 9.28603 1.47709C10.0152 1.79117 10.6734 2.25085 11.2206 2.82825L11.4999 3.11748L11.7781 2.82825C12.326 2.25164 12.9842 1.79241 13.7132 1.47822C14.4423 1.16403 15.227 1.00136 16.0202 1C17.6162 1 19.1419 1.65868 20.2622 2.82825C21.3805 4.00083 22.0033 5.56335 22 7.18776Z" stroke="white" stroke-width="2" stroke-linejoin="round"/>
</svg>
