<svg width="25" height="24" viewBox="0 0 25 24" fill="none" xmlns="http://www.w3.org/2000/svg">
<path d="M13.753 6.06764V1.49818C13.753 1.10084 13.8848 0.719771 14.1192 0.438807C14.3537 0.157844 14.6717 0 15.0033 0C15.3313 0.00165492 15.6456 0.157692 15.8785 0.434473L24.6302 10.9218C24.7474 11.061 24.8404 11.2267 24.9038 11.4093C24.9673 11.5919 25 11.7877 25 11.9855C25 12.1832 24.9673 12.3791 24.9038 12.5616C24.8404 12.7442 24.7474 12.9099 24.6302 13.0492L15.8785 23.5364C15.7029 23.7426 15.4806 23.8822 15.2393 23.9378C14.9979 23.9934 14.7482 23.9625 14.5214 23.849C14.2947 23.7355 14.1008 23.5444 13.9641 23.2996C13.8275 23.0549 13.754 22.7672 13.753 22.4727V17.8284H12.6903C10.715 17.7931 8.75699 18.2733 6.9521 19.2357C5.14722 20.1981 3.53872 21.6196 2.23826 23.4016C2.08154 23.6516 1.86346 23.8366 1.61459 23.9307C1.36572 24.0247 1.09854 24.023 0.850487 23.926C0.598055 23.8239 0.379435 23.6279 0.226503 23.3664C0.0735703 23.105 -0.00567627 22.7919 0.000318527 22.4727C0.000318527 8.80931 10.1023 6.47215 13.753 6.06764ZM12.6903 14.802C13.5265 14.8001 14.3619 14.8652 15.1908 14.9968C15.4868 15.0506 15.7568 15.2299 15.9519 15.5021C16.1469 15.7743 16.2539 16.1213 16.2535 16.48V18.8621L21.9797 11.9855L16.2535 5.1088V7.49091C16.2535 7.88826 16.1218 8.26932 15.8873 8.55029C15.6529 8.83125 15.3349 8.9891 15.0033 8.9891C13.8656 8.9891 4.86378 9.28873 2.91339 18.6224C5.74433 16.1213 9.17317 14.7815 12.6903 14.802Z" fill="white"/>
</svg>
