<svg width="31" height="31" viewBox="0 0 31 31" fill="none" xmlns="http://www.w3.org/2000/svg">
<path fill-rule="evenodd" clip-rule="evenodd" d="M29.8929 2.21429H26.5714V0H24.3571V2.21429H6.64286V0H4.42857V2.21429H1.10714L0 3.32143V29.8929L1.10714 31H29.8929L31 29.8929V3.32143L29.8929 2.21429ZM28.7857 28.7857H2.21429V8.85714H28.7857V28.7857ZM28.7857 6.64286H2.21429V4.42857H28.7857V6.64286ZM6.64286 15.5H4.42857V17.7143H6.64286V15.5ZM4.42857 19.9286H6.64286V22.1429H4.42857V19.9286ZM6.64286 24.3571H4.42857V26.5714H6.64286V24.3571ZM11.0714 15.5H13.2857V17.7143H11.0714V15.5ZM13.2857 19.9286H11.0714V22.1429H13.2857V19.9286ZM11.0714 24.3571H13.2857V26.5714H11.0714V24.3571ZM13.2857 11.0714H11.0714V13.2857H13.2857V11.0714ZM17.7143 15.5H19.9286V17.7143H17.7143V15.5ZM19.9286 19.9286H17.7143V22.1429H19.9286V19.9286ZM17.7143 24.3571H19.9286V26.5714H17.7143V24.3571ZM19.9286 11.0714H17.7143V13.2857H19.9286V11.0714ZM24.3571 15.5H26.5714V17.7143H24.3571V15.5ZM26.5714 19.9286H24.3571V22.1429H26.5714V19.9286ZM24.3571 11.0714H26.5714V13.2857H24.3571V11.0714Z" fill="#02BF89"/>
</svg>
