<svg width="31" height="31" viewBox="0 0 31 31" fill="none" xmlns="http://www.w3.org/2000/svg">
<path fill-rule="evenodd" clip-rule="evenodd" d="M13.8212 0H17.1788C20.1007 0 22.4154 0 24.2261 0.220605C26.0893 0.448419 27.5979 0.927116 28.7887 2.00563C29.9778 3.08558 30.5056 4.45391 30.7568 6.14377C31 7.78749 31 9.8854 31 12.5355V18.4645C31 21.1146 31 23.214 30.7568 24.8562C30.5056 26.5461 29.9778 27.9144 28.7887 28.9944C27.5979 30.0729 26.0893 30.5516 24.2261 30.7794C22.4138 31 20.1007 31 17.1788 31H13.8212C10.8993 31 8.58462 31 6.7739 30.7794C4.91072 30.5516 3.40205 30.0729 2.21133 28.9944C1.02221 27.9144 0.49441 26.5461 0.243231 24.8562C1.89512e-07 23.2125 0 21.1146 0 18.4645V12.5355C0 9.8854 1.89512e-07 7.78605 0.243231 6.14377C0.49441 4.45391 1.02221 3.08558 2.21133 2.00563C3.40205 0.927116 4.91072 0.448419 6.7739 0.220605C8.58621 0 10.8993 0 13.8212 0ZM7.09026 2.36465C5.49097 2.5593 4.56892 2.92553 3.89487 3.53544C3.224 4.14535 2.82021 4.98163 2.60559 6.43214C2.38621 7.91437 2.38303 9.86665 2.38303 12.6163V18.3837C2.38303 21.1333 2.38621 23.0871 2.60559 24.5693C2.82021 26.0184 3.224 26.8547 3.89646 27.4646C4.56892 28.0745 5.49097 28.4407 7.09026 28.6353C8.72451 28.8343 10.877 28.8372 13.9087 28.8372H17.0882C20.1198 28.8372 22.2739 28.8343 23.9082 28.6353C25.5058 28.4407 26.4279 28.0745 27.1004 27.4646C27.7728 26.8547 28.1766 26.0184 28.3912 24.5679C28.6106 23.0871 28.6138 21.1333 28.6138 18.3837V12.6163C28.6138 9.86665 28.6106 7.91437 28.3912 6.4307C28.1766 4.98163 27.7728 4.14535 27.1004 3.53544C26.4279 2.92553 25.5058 2.5593 23.9066 2.36465C22.2739 2.16567 20.1198 2.16279 17.0882 2.16279H13.9087C10.877 2.16279 8.7261 2.16567 7.09026 2.36465ZM7.94872 9.73256C7.94872 9.44575 8.07434 9.1707 8.29794 8.9679C8.52154 8.76509 8.82481 8.65116 9.14103 8.65116H21.859C22.1752 8.65116 22.4785 8.76509 22.7021 8.9679C22.9257 9.1707 23.0513 9.44575 23.0513 9.73256C23.0513 10.0194 22.9257 10.2944 22.7021 10.4972C22.4785 10.7 22.1752 10.814 21.859 10.814H9.14103C8.82481 10.814 8.52154 10.7 8.29794 10.4972C8.07434 10.2944 7.94872 10.0194 7.94872 9.73256ZM7.94872 15.5C7.94872 15.2132 8.07434 14.9381 8.29794 14.7353C8.52154 14.5325 8.82481 14.4186 9.14103 14.4186H21.859C22.1752 14.4186 22.4785 14.5325 22.7021 14.7353C22.9257 14.9381 23.0513 15.2132 23.0513 15.5C23.0513 15.7868 22.9257 16.0619 22.7021 16.2647C22.4785 16.4675 22.1752 16.5814 21.859 16.5814H9.14103C8.82481 16.5814 8.52154 16.4675 8.29794 16.2647C8.07434 16.0619 7.94872 15.7868 7.94872 15.5ZM7.94872 21.2674C7.94872 20.9806 8.07434 20.7056 8.29794 20.5028C8.52154 20.3 8.82481 20.186 9.14103 20.186H17.0897C17.406 20.186 17.7092 20.3 17.9328 20.5028C18.1564 20.7056 18.2821 20.9806 18.2821 21.2674C18.2821 21.5542 18.1564 21.8293 17.9328 22.0321C17.7092 22.2349 17.406 22.3488 17.0897 22.3488H9.14103C8.82481 22.3488 8.52154 22.2349 8.29794 22.0321C8.07434 21.8293 7.94872 21.5542 7.94872 21.2674Z" fill="#02BF89"/>
</svg>
