<svg width="31" height="31" viewBox="0 0 31 31" fill="none" xmlns="http://www.w3.org/2000/svg">
<path d="M15.5 0C11.3891 0 7.44666 1.63303 4.53984 4.53984C1.63303 7.44666 0 11.3891 0 15.5C0 19.6109 1.63303 23.5533 4.53984 26.4602C7.44666 29.367 11.3891 31 15.5 31C19.6109 31 23.5533 29.367 26.4602 26.4602C29.367 23.5533 31 19.6109 31 15.5C31 11.3891 29.367 7.44666 26.4602 4.53984C23.5533 1.63303 19.6109 0 15.5 0ZM1.91167 16.6711H6.23444C6.30333 18.2383 6.52206 19.7952 6.88889 21.3211H3.16889C2.47658 19.8582 2.05084 18.2836 1.91167 16.6711ZM16.6711 7.37111V2.04944C18.3308 2.68016 19.6946 3.9088 20.4944 5.49389C20.8481 6.09207 21.1581 6.71207 21.4244 7.35389L16.6711 7.37111ZM22.2167 9.69611C22.6162 11.2168 22.8539 12.7754 22.9228 14.3461H16.6711V9.69611H22.2167ZM14.3289 2.04944V7.37111H9.57556C9.84107 6.72985 10.1519 6.10828 10.5056 5.51111C11.302 3.91952 12.6662 2.68436 14.3289 2.04944ZM14.3289 9.69611V14.3461H8.09444C8.16333 12.7754 8.401 11.2168 8.80056 9.69611H14.3289ZM6.23444 14.3289H1.91167C2.05084 12.7164 2.47658 11.1418 3.16889 9.67889H6.88889C6.51996 11.2039 6.30078 12.7613 6.23444 14.3289ZM8.09444 16.6711H14.3289V21.3211H8.80056C8.40258 19.8002 8.1659 18.2416 8.09444 16.6711ZM14.3461 23.56V28.8817C12.6864 28.2509 11.3227 27.0223 10.5228 25.4372C10.1691 24.8401 9.85829 24.2185 9.59278 23.5772L14.3461 23.56ZM16.6711 28.8817V23.6461H21.4244C21.1589 24.2874 20.8481 24.9089 20.4944 25.5061C19.6946 27.0912 18.3308 28.3198 16.6711 28.9506V28.8817ZM16.6711 21.235V16.585H22.9056C22.8341 18.1555 22.5974 19.7141 22.1994 21.235H16.6711ZM24.7828 16.585H29.1056C28.9664 18.1974 28.5406 19.7721 27.8483 21.235H24.1111C24.4728 19.7367 24.6915 18.2091 24.7656 16.6711L24.7828 16.585ZM24.7828 14.26C24.7053 12.7207 24.4804 11.1924 24.1111 9.69611H27.8311C28.5252 11.16 28.9506 12.7341 29.0883 14.3461L24.7828 14.26ZM26.505 7.37111H23.4222C22.865 5.80415 22.0565 4.33833 21.0283 3.03111C23.1714 3.99311 25.033 5.48709 26.4361 7.37111H26.505ZM9.97167 3.03111C8.94354 4.33833 8.13501 5.80415 7.57778 7.37111H4.56389C5.96702 5.48709 7.82857 3.99311 9.97167 3.03111ZM4.54667 23.6978H7.57778C8.13501 25.2647 8.94354 26.7306 9.97167 28.0378C7.82264 27.0613 5.96052 25.5491 4.56389 23.6461L4.54667 23.6978ZM21.0111 28.0378C22.0392 26.7306 22.8478 25.2647 23.405 23.6978H26.4361C25.0244 25.5566 23.1636 27.0262 21.0283 27.9689L21.0111 28.0378Z" fill="#02BF89"/>
</svg>
