<svg width="31" height="31" viewBox="0 0 31 31" fill="none" xmlns="http://www.w3.org/2000/svg">
<path d="M31 15.4845C31 6.93625 24.056 0 15.5 0C6.944 0 0 6.93625 0 15.4845C0 20.1926 2.139 24.4357 5.487 27.2839C5.518 27.3149 5.549 27.3149 5.549 27.3459C5.828 27.5629 6.107 27.7799 6.417 27.9969C6.572 28.0899 6.696 28.2119 6.851 28.3359C9.41354 30.0705 12.4366 30.9983 15.531 31C18.6254 30.9983 21.6485 30.0705 24.211 28.3359C24.366 28.2429 24.49 28.1209 24.645 28.0259C24.924 27.8109 25.234 27.5939 25.513 27.3769C25.544 27.3459 25.575 27.3459 25.575 27.3149C28.861 24.4338 31 20.1926 31 15.4845ZM15.5 29.0489C12.586 29.0489 9.92 28.1189 7.719 26.5709C7.75 26.3229 7.812 26.0768 7.874 25.8288C8.05933 25.1569 8.33021 24.5116 8.68 23.9088C9.021 23.3197 9.424 22.7927 9.92 22.3277C10.385 21.8627 10.943 21.4307 11.501 21.0897C12.09 20.7487 12.71 20.5007 13.392 20.3147C14.0795 20.1305 14.7882 20.0374 15.5 20.0376C17.6133 20.0216 19.6492 20.8324 21.173 22.2968C21.886 23.0098 22.444 23.8461 22.847 24.8058C23.064 25.3638 23.219 25.9522 23.312 26.5709C21.0242 28.1793 18.2967 29.0445 15.5 29.0489ZM10.757 14.7114C10.4844 14.0859 10.3471 13.4098 10.354 12.7274C10.354 12.0474 10.478 11.3654 10.757 10.7454C11.036 10.1254 11.408 9.56931 11.873 9.10431C12.338 8.63931 12.896 8.26925 13.516 7.99025C14.136 7.71125 14.818 7.58725 15.5 7.58725C16.213 7.58725 16.864 7.71125 17.484 7.99025C18.104 8.26925 18.662 8.64125 19.127 9.10431C19.592 9.56931 19.964 10.1273 20.243 10.7454C20.522 11.3654 20.646 12.0474 20.646 12.7274C20.646 13.4404 20.522 14.0914 20.243 14.7095C19.9753 15.3212 19.5969 15.8782 19.127 16.3525C18.6525 16.8217 18.0955 17.1994 17.484 17.4666C16.2028 17.992 14.7662 17.992 13.485 17.4666C12.8735 17.1994 12.3165 16.8217 11.842 16.3525C11.3717 15.8849 11.0024 15.3276 10.757 14.7114ZM25.141 24.9918C25.141 24.9298 25.11 24.8988 25.11 24.8368C24.8057 23.8667 24.3562 22.9483 23.777 22.1127C23.1973 21.271 22.4855 20.5284 21.669 19.9136C21.0452 19.4442 20.369 19.0489 19.654 18.7356C19.9778 18.519 20.279 18.2704 20.553 17.9936C21.0152 17.5373 21.4211 17.0273 21.762 16.4746C22.4509 15.3476 22.8057 14.0481 22.785 12.7274C22.7951 11.7499 22.6052 10.7807 22.227 9.87931C21.854 9.01064 21.3173 8.22192 20.646 7.55625C19.9741 6.89953 19.1856 6.37388 18.321 6.00625C17.4183 5.62815 16.4477 5.43891 15.469 5.45019C14.4902 5.43952 13.5196 5.62943 12.617 6.00819C11.7429 6.37133 10.9518 6.90859 10.292 7.58725C9.63186 8.25563 9.10573 9.04416 8.742 9.91031C8.36376 10.8117 8.17387 11.7809 8.184 12.7584C8.184 13.4404 8.277 14.0908 8.463 14.7095C8.649 15.3605 8.897 15.9495 9.238 16.5056C9.548 17.0636 9.982 17.5596 10.447 18.0246C10.726 18.3036 11.036 18.5509 11.377 18.7666C10.6588 19.0864 9.98212 19.4924 9.362 19.9756C8.556 20.5956 7.843 21.3377 7.254 22.1437C6.6694 22.9761 6.21956 23.8954 5.921 24.8678C5.89 24.9298 5.89 24.9918 5.89 25.0228C3.441 22.5448 1.922 19.2006 1.922 15.4845C1.922 8.02125 8.029 1.92006 15.5 1.92006C22.971 1.92006 29.078 8.02125 29.078 15.4845C29.0739 19.0494 27.6584 22.4677 25.141 24.9918Z" fill="#02BF89"/>
</svg>
