<svg width="31" height="32" viewBox="0 0 31 32" fill="none" xmlns="http://www.w3.org/2000/svg">
<path fill-rule="evenodd" clip-rule="evenodd" d="M6.64286 23.4404L8.85714 21.1624V24.3971L6.31071 26.994L4.42857 26.1967V20.5018H1.10714L0 19.3628V1.13899L1.10714 0H27.6786L28.7857 1.13899V11.3899H26.5714V2.27798H2.21429V18.2238H5.53571L6.64286 19.3628V23.4404ZM20.5707 27.3357L24.6893 31.55L26.5714 30.7527V27.3357H29.8929L31 26.1967V14.8069L29.8929 13.6679H12.1786L11.0714 14.8069V26.1967L12.1786 27.3357H20.5707ZM21.0357 25.0578H13.2857V15.9458H28.7857V25.0578H25.4643L24.3571 26.1967V27.9964L21.8107 25.3995L21.0357 25.0578Z" fill="#02BF89"/>
</svg>
