<svg width="31" height="31" viewBox="0 0 31 31" fill="none" xmlns="http://www.w3.org/2000/svg">
<path fill-rule="evenodd" clip-rule="evenodd" d="M3.99183 12.0442C7.16191 18.9478 12.7932 24.4187 19.7832 27.386L19.8044 27.3948L21.1566 27.9969C21.9919 28.3696 22.9298 28.4433 23.813 28.2056C24.6961 27.968 25.4706 27.4334 26.0062 26.6917L28.2611 23.5696C28.3274 23.4776 28.3559 23.3637 28.3408 23.2514C28.3256 23.139 28.268 23.0368 28.1797 22.9657L24.2434 19.7868C24.1969 19.7493 24.1434 19.7216 24.086 19.7054C24.0285 19.6891 23.9684 19.6847 23.9092 19.6923C23.85 19.6999 23.793 19.7194 23.7415 19.7497C23.69 19.7799 23.6452 19.8202 23.6098 19.8683L22.077 21.9367C21.8964 22.1808 21.6377 22.3555 21.344 22.4319C21.0503 22.5083 20.7393 22.4817 20.4628 22.3565C15.2269 19.9808 11.0316 15.7831 8.65737 10.5442C8.53225 10.2676 8.50564 9.9564 8.58196 9.66252C8.65829 9.36863 8.83295 9.10979 9.07685 8.92911L11.1424 7.39369C11.1904 7.3582 11.2307 7.31336 11.2609 7.26187C11.2911 7.21037 11.3106 7.1533 11.3182 7.09407C11.3258 7.03484 11.3214 6.97468 11.3052 6.91722C11.2889 6.85976 11.2612 6.80617 11.2238 6.75969L8.04852 2.82109C7.97747 2.73278 7.87527 2.6751 7.76298 2.65994C7.65069 2.64478 7.53687 2.67331 7.44497 2.73963L4.30688 5.00645C3.56068 5.54501 3.02387 6.32548 2.78768 7.21524C2.5515 8.10499 2.63051 9.04913 3.01129 9.88719L3.99183 12.0442ZM18.7354 29.8263C11.1412 26.5991 5.02356 20.6529 1.57942 13.1511L1.57588 13.1475L0.595333 10.987C-0.0393291 9.59044 -0.171209 8.01715 0.222099 6.53437C0.615407 5.05159 1.50964 3.75079 2.75288 2.85297L5.89097 0.586154C6.53368 0.122024 7.32977 -0.0779083 8.11536 0.0275121C8.90095 0.132932 9.61625 0.535683 10.114 1.15286L13.2911 5.09323C13.5532 5.41832 13.747 5.7931 13.8608 6.19504C13.9745 6.59697 14.0059 7.01777 13.953 7.43215C13.9001 7.84652 13.764 8.24591 13.5529 8.60633C13.3418 8.96675 13.0601 9.28075 12.7247 9.52946L11.5388 10.4079C13.5445 14.2969 16.7105 17.4647 20.5973 19.4716L21.477 18.285C21.7256 17.9497 22.0393 17.668 22.3993 17.457C22.7594 17.2459 23.1584 17.1099 23.5723 17.0569C23.9862 17.004 24.4065 17.0353 24.8081 17.149C25.2096 17.2626 25.584 17.4563 25.9089 17.7183L29.847 20.8972C30.4643 21.3953 30.8672 22.1114 30.9725 22.8978C31.0779 23.6843 30.8778 24.4812 30.4134 25.1245L28.1585 28.2484C27.2659 29.4844 25.9754 30.3754 24.5038 30.7718C23.0321 31.1681 21.469 31.0456 20.077 30.4249L18.7354 29.8263Z" fill="#02BF89"/>
</svg>
