<svg width="96" height="96" viewBox="0 0 96 96" fill="none" xmlns="http://www.w3.org/2000/svg">
<rect x="1.5" y="1.5" width="93" height="93" rx="19.5" fill="white" stroke="#02BF89" stroke-width="3"/>
<path d="M25.57 29.22C22 32.4707 22 37.6687 22 48.08V49.92C22 60.316 22 65.514 25.57 68.78C29.174 72 34.937 72 46.48 72H48.52C60.046 72 65.809 72 69.43 68.78C73 65.5293 73 60.3313 73 49.92V48.08C73 37.684 73 32.486 69.43 29.22C65.826 26 60.063 26 48.52 26H46.48C34.954 26 29.191 26 25.57 29.22ZM30.602 39.9993H36.45C36.637 48.77 40.921 52.4807 44.321 53.2473V39.9993H49.812V47.5587C53.161 47.2367 56.697 43.7867 57.887 39.984H63.361C62.9143 41.9523 62.0226 43.8165 60.7415 45.4601C59.4604 47.1037 57.8173 48.4914 55.915 49.5367C58.0384 50.4896 59.9136 51.8378 61.4169 53.4923C62.9202 55.1469 64.0173 57.0702 64.636 59.1353H58.601C57.309 55.5013 54.079 52.68 49.812 52.2967V59.1353H49.132C37.504 59.1353 30.874 51.9593 30.602 39.9993Z" fill="#0092D1"/>
</svg>
