<svg width="29" height="19" viewBox="0 0 29 19" fill="none" xmlns="http://www.w3.org/2000/svg">
<path d="M28.9166 9.11525C28.8743 9.02144 27.8509 6.79012 25.5756 4.55406C22.5439 1.57462 18.7147 0 14.5 0C10.2853 0 6.45612 1.57462 3.42441 4.55406C1.14911 6.79012 0.120822 9.025 0.0833635 9.11525C0.0284002 9.23674 0 9.36823 0 9.50119C0 9.63415 0.0284002 9.76563 0.0833635 9.88712C0.125655 9.98094 1.14911 12.2111 3.42441 14.4471C6.45612 17.4254 10.2853 19 14.5 19C18.7147 19 22.5439 17.4254 25.5756 14.4471C27.8509 12.2111 28.8743 9.98094 28.9166 9.88712C28.9716 9.76563 29 9.63415 29 9.50119C29 9.36823 28.9716 9.23674 28.9166 9.11525ZM14.5 17.1C10.7807 17.1 7.53154 15.7712 4.84178 13.1516C3.73818 12.0729 2.79924 10.843 2.05416 9.5C2.79896 8.15684 3.73793 6.92686 4.84178 5.84844C7.53154 3.22881 10.7807 1.9 14.5 1.9C18.2193 1.9 21.4685 3.22881 24.1582 5.84844C25.264 6.92668 26.2049 8.15664 26.9519 9.5C26.0807 11.0984 22.2853 17.1 14.5 17.1ZM14.5 3.8C13.3529 3.8 12.2315 4.1343 11.2777 4.76062C10.3239 5.38695 9.58048 6.27717 9.14149 7.3187C8.70251 8.36024 8.58765 9.50632 8.81144 10.612C9.03524 11.7177 9.58763 12.7333 10.3988 13.5305C11.2099 14.3277 12.2434 14.8705 13.3685 15.0905C14.4936 15.3104 15.6598 15.1975 16.7196 14.7661C17.7794 14.3347 18.6852 13.6041 19.3225 12.6668C19.9598 11.7294 20.3 10.6274 20.3 9.5C20.2984 7.98875 19.6868 6.53984 18.5995 5.47123C17.5121 4.40261 16.0378 3.80157 14.5 3.8ZM14.5 13.3C13.7352 13.3 12.9877 13.0771 12.3518 12.6596C11.7159 12.242 11.2203 11.6486 10.9277 10.9542C10.635 10.2598 10.5584 9.49578 10.7076 8.75866C10.8568 8.02153 11.2251 7.34443 11.7659 6.81299C12.3066 6.28155 12.9956 5.91964 13.7457 5.77302C14.4957 5.62639 15.2732 5.70164 15.9797 5.98926C16.6863 6.27687 17.2901 6.76393 17.715 7.38883C18.1399 8.01374 18.3667 8.74843 18.3667 9.5C18.3667 10.5078 17.9593 11.4744 17.2341 12.187C16.509 12.8996 15.5255 13.3 14.5 13.3Z" fill="white"/>
</svg>
