<svg width="197" height="53" viewBox="0 0 197 53" fill="none" xmlns="http://www.w3.org/2000/svg">
<path d="M2.3797 2.42851C41.8968 83.4513 163.337 41.806 183.059 21.226C184.996 19.2042 187.932 17.6521 189.788 15.6544C191.903 13.3788 187.795 20.9808 187.809 23.7022C187.821 25.9302 187.833 28.1582 187.845 30.3861C187.85 31.3608 186.825 34.1957 186.82 33.221C186.801 29.7637 187.478 25.9506 188.843 22.6306C190.67 18.1873 193.932 12.5109 194.543 8.00196C194.555 7.9137 192.632 9.21159 192.354 9.32578C190.573 10.0593 188.843 10.992 187.227 11.8954C181.93 14.8564 175.583 14.5816 169.043 14.6163" stroke="#02BF89" stroke-width="4" stroke-linecap="round" stroke-dasharray="16 16"/>
</svg>
